<?xml version="1.0" standalone="no"?>
<!DOCTYPE svg PUBLIC "-//W3C//DTD SVG 20010904//EN"
 "http://www.w3.org/TR/2001/REC-SVG-20010904/DTD/svg10.dtd">
<svg version="1.0" xmlns="http://www.w3.org/2000/svg"
 width="1040.000000pt" height="1040.000000pt" viewBox="0 0 1040.000000 1040.000000"
 preserveAspectRatio="xMidYMid meet">
<metadata>
Created by potrace 1.14, written by Peter Selinger 2001-2017
</metadata>
<g transform="translate(0.000000,1040.000000) scale(0.100000,-0.100000)"
fill="#000000" stroke="none">
<path d="M1336 10045 c-102 -17 -204 -60 -255 -108 -32 -30 -101 -157 -101
-184 0 -10 108 -13 538 -13 582 0 614 -3 732 -56 62 -28 134 -95 164 -153 10
-18 27 -67 39 -109 l22 -77 5 -1620 5 -1619 695 799 c382 439 925 1063 1205
1385 281 323 626 721 769 884 142 164 256 300 253 303 -14 13 -151 -41 -219
-86 -88 -59 -105 -77 -338 -346 -477 -550 -1427 -1641 -1675 -1925 l-170 -195
-5 1380 c-5 1291 -7 1384 -24 1439 -27 90 -59 147 -109 193 -56 52 -89 69
-185 96 -74 20 -98 21 -667 23 -470 2 -608 0 -679 -11z"/>
<path d="M6440 10050 c-47 -4 -110 -13 -140 -20 -122 -29 -252 -115 -353 -233
l-48 -57 863 -2 863 -3 44 -25 c25 -14 54 -40 65 -59 27 -47 26 -133 -3 -188
-12 -24 -108 -143 -215 -265 -106 -123 -485 -559 -842 -969 -2138 -2457 -2619
-3011 -2619 -3019 0 -5 401 -480 890 -1056 490 -576 919 -1081 955 -1124 36
-42 113 -134 172 -203 59 -69 389 -458 734 -864 345 -406 692 -813 771 -905
l144 -168 249 0 c137 0 271 5 298 11 66 14 95 45 95 101 0 70 92 -43 -967
1206 -1035 1221 -1390 1638 -1406 1652 -9 8 -311 362 -670 785 -359 424 -676
796 -703 828 l-49 57 54 63 c30 34 374 429 763 877 390 448 1022 1175 1405
1614 1323 1521 1441 1658 1462 1699 27 52 29 138 5 184 -21 39 -67 68 -135 82
-59 12 -1532 13 -1682 1z"/>
<path d="M341 9474 c-82 -22 -134 -48 -180 -90 -55 -49 -85 -101 -113 -199
l-23 -80 0 -4190 0 -4190 23 -80 c54 -187 144 -263 359 -300 127 -22 1161 -22
1289 0 94 17 176 49 232 92 31 23 92 106 92 124 0 4 -273 9 -607 12 -659 4
-670 5 -781 61 -51 26 -120 94 -146 144 -9 17 -26 65 -38 109 l-23 78 0 4195
0 4195 21 68 21 67 -36 -1 c-20 0 -60 -7 -90 -15z"/>
<path d="M3379 4438 c-90 -105 -193 -225 -229 -267 -36 -42 -149 -173 -251
-291 -101 -118 -236 -275 -299 -348 l-115 -133 -6 -1217 c-4 -669 -10 -1234
-14 -1255 l-7 -39 78 7 c263 24 383 109 439 311 25 92 34 473 34 1552 l1 962
38 43 c21 23 58 67 82 97 77 95 231 270 238 270 4 0 57 -59 117 -131 293 -348
1891 -2218 1944 -2274 21 -22 277 -319 569 -660 293 -341 554 -638 581 -659
83 -68 92 -69 427 -74 310 -4 360 1 404 36 34 28 38 96 8 152 l-25 45 -144 7
c-79 4 -159 11 -178 17 -70 22 -149 102 -465 471 -177 206 -495 577 -706 825
-212 247 -601 702 -865 1011 -264 308 -705 824 -980 1147 -275 322 -503 586
-506 586 -4 1 -80 -85 -170 -191z"/>
</g>
</svg>
